<svg xmlns="http://www.w3.org/2000/svg" viewBox="0 0 197.6 62.2"><defs><style>.cls-1{fill:#3ED77E;}</style></defs><title>Ресурс 1</title><g id="Шар_2" data-name="Шар 2"><g id="Capa_1" data-name="Capa 1"><path class="cls-1" d="M85.7,32.8v6c-5.8-1.2-9.5,1.4-9.5,6.9V61.3H70V32.8h5.8l.3,3.7C77.3,33.4,81.2,31.8,85.7,32.8Z"/><path class="cls-1" d="M111.5,51.9l5.1,2c-1.6,5-6.9,8.3-13.3,8.3-8.4,0-14.1-6-14.1-15.2s5.6-15.2,14-15.2c8,0,13.4,5.5,13.4,13.7a13.93,13.93,0,0,1-.4,3.5H95.3c.1,4.9,3.3,8,8,8C107.1,57,110.4,54.9,111.5,51.9ZM95.3,44.2h15c-.1-4.3-2.8-7.1-7.1-7.1A7.51,7.51,0,0,0,95.3,44.2Z"/><path class="cls-1" d="M162.2,41.9V61.3H156V43c0-3.9-1.8-5.5-5-5.5s-5.2,2.4-5.2,6.2V61.4h-6.3v-18c0-4.2-2-5.9-5-5.9-3.2,0-5.2,2.5-5.2,6.2V61.3h-6.2V32.8h5.5l.3,3a8.35,8.35,0,0,1,7.5-3.9c3.9,0,6.9,1.9,8.1,5a8.33,8.33,0,0,1,8-5C158.4,31.8,162.2,35.5,162.2,41.9Z"/><path class="cls-1" d="M182.9,31.8c8.5,0,14.7,6.2,14.7,15.2s-6.2,15.2-14.8,15.2c-8.4,0-14.8-6.1-14.8-15.2S174.4,31.8,182.9,31.8Zm-.1,24.8c4.9,0,8.2-3.8,8.2-9.5s-3.3-9.5-8.2-9.5-8.3,3.8-8.3,9.6C174.5,52.8,177.8,56.6,182.8,56.6Z"/><path class="cls-1" d="M4.5,14.2C4.5,8.9,6,3.7,8.5.2L8.7,0H5.1C1.8,3.4,0,8.6,0,14.2S1.9,25,5.1,28.4H8.7l-.2-.2C5.9,24.7,4.5,19.6,4.5,14.2Z"/><polygon class="cls-1" points="12.2 1 8.6 1 20.3 21.6 20.3 21.7 23.9 21.7 12.2 1.1 12.2 1"/><path class="cls-1" d="M34.2,28.2c-2.6-3.5-4-8.6-4-14s1.5-10.5,4-14l.2-.2H30.8c-3.3,3.4-5.1,8.6-5.1,14.2S27.6,25,30.8,28.4h3.6Z"/><polygon class="cls-1" points="37.9 1.1 37.8 1 34.2 1 45.9 21.6 46 21.7 49.5 21.7 37.9 1.1"/><path class="cls-1" d="M8.7,32.9H5.1C1.8,36.3,0,41.5,0,47.1S1.9,57.9,5.1,61.3H8.7l-.2-.2c-2.6-3.5-4-8.6-4-14s1.5-10.5,4-14Z"/><polygon class="cls-1" points="10.2 44 17.5 47.5 10.3 51 10.2 51 10.2 55.1 21.5 49.3 21.6 49.3 21.6 45.7 10.2 40 10.2 44"/><polygon class="cls-1" points="25.7 43.9 25.7 44.1 28.3 44.1 28.8 34.2 28.8 34.1 25.1 34.1 25.7 43.9"/><path class="cls-1" d="M35.3,50a2.5,2.5,0,1,0,2.5,2.5A2.36,2.36,0,0,0,35.3,50Z"/><path class="cls-1" d="M35.3,40.3a2.5,2.5,0,1,0,2.5,2.5A2.36,2.36,0,0,0,35.3,40.3Z"/><polygon class="cls-1" points="42.4 43.9 42.4 44.1 45 44.1 45.5 34.2 45.5 34.1 41.8 34.1 42.4 43.9"/><path class="cls-1" d="M50.6,32.9H47l.2.2c2.5,3.4,4,8.6,4,14a24.62,24.62,0,0,1-4,14l-.2.2h3.6c3.2-3.3,5.1-8.6,5.1-14.2A21.05,21.05,0,0,0,50.6,32.9Z"/></g></g></svg>
